<svg width="29" height="15" viewBox="0 0 29 15" fill="none" xmlns="http://www.w3.org/2000/svg">
<path d="M24.2273 9.27273H25.3864L26.358 10.5511L26.6136 10.892L28.0625 12.8182H26.9034L25.9489 11.5398L25.7102 11.2159L24.2273 9.27273ZM28.4205 7.63636C28.4205 8.55682 28.2543 9.35227 27.9219 10.0227C27.5895 10.6932 27.1335 11.2102 26.554 11.5739C25.9744 11.9375 25.3125 12.1193 24.5682 12.1193C23.8239 12.1193 23.1619 11.9375 22.5824 11.5739C22.0028 11.2102 21.5469 10.6932 21.2145 10.0227C20.8821 9.35227 20.7159 8.55682 20.7159 7.63636C20.7159 6.71591 20.8821 5.92045 21.2145 5.25C21.5469 4.57955 22.0028 4.0625 22.5824 3.69886C23.1619 3.33523 23.8239 3.15341 24.5682 3.15341C25.3125 3.15341 25.9744 3.33523 26.554 3.69886C27.1335 4.0625 27.5895 4.57955 27.9219 5.25C28.2543 5.92045 28.4205 6.71591 28.4205 7.63636ZM27.3977 7.63636C27.3977 6.88068 27.2713 6.2429 27.0185 5.72301C26.7685 5.20312 26.429 4.80966 26 4.54261C25.5739 4.27557 25.0966 4.14205 24.5682 4.14205C24.0398 4.14205 23.5611 4.27557 23.1321 4.54261C22.706 4.80966 22.3665 5.20312 22.1136 5.72301C21.8636 6.2429 21.7386 6.88068 21.7386 7.63636C21.7386 8.39205 21.8636 9.02983 22.1136 9.54972C22.3665 10.0696 22.706 10.4631 23.1321 10.7301C23.5611 10.9972 24.0398 11.1307 24.5682 11.1307C25.0966 11.1307 25.5739 10.9972 26 10.7301C26.429 10.4631 26.7685 10.0696 27.0185 9.54972C27.2713 9.02983 27.3977 8.39205 27.3977 7.63636Z" fill="black"/>
<path d="M18 9.59L14 4.59L10 9.5L9 8.59L14 2.59L19 8.59L18 9.59Z" fill="black"/>
<path d="M1.05682 12V3.27273H4.00568C4.69034 3.27273 5.25 3.39631 5.68466 3.64347C6.12216 3.88778 6.44602 4.21875 6.65625 4.63636C6.86648 5.05398 6.97159 5.51989 6.97159 6.03409C6.97159 6.5483 6.86648 7.01562 6.65625 7.43608C6.44886 7.85653 6.12784 8.19176 5.69318 8.44176C5.25852 8.68892 4.7017 8.8125 4.02273 8.8125H1.90909V7.875H3.98864C4.45739 7.875 4.83381 7.79403 5.1179 7.6321C5.40199 7.47017 5.60795 7.25142 5.7358 6.97585C5.86648 6.69744 5.93182 6.38352 5.93182 6.03409C5.93182 5.68466 5.86648 5.37216 5.7358 5.09659C5.60795 4.82102 5.40057 4.60511 5.11364 4.44886C4.8267 4.28977 4.44602 4.21023 3.97159 4.21023H2.11364V12H1.05682Z" fill="black"/>
</svg>
