<svg width="46" height="15" viewBox="0 0 46 15" fill="none" xmlns="http://www.w3.org/2000/svg">
<path d="M31.01 6H19V8H31.01V11L35 7L31.01 3V6Z" fill="black"/>
<path d="M13.99 8L26 8V6L13.99 6L13.99 3L10 7L13.99 11V8Z" fill="black"/>
<path d="M41.2273 9.27273H42.3864L43.358 10.5511L43.6136 10.892L45.0625 12.8182H43.9034L42.9489 11.5398L42.7102 11.2159L41.2273 9.27273ZM45.4205 7.63636C45.4205 8.55682 45.2543 9.35227 44.9219 10.0227C44.5895 10.6932 44.1335 11.2102 43.554 11.5739C42.9744 11.9375 42.3125 12.1193 41.5682 12.1193C40.8239 12.1193 40.1619 11.9375 39.5824 11.5739C39.0028 11.2102 38.5469 10.6932 38.2145 10.0227C37.8821 9.35227 37.7159 8.55682 37.7159 7.63636C37.7159 6.71591 37.8821 5.92045 38.2145 5.25C38.5469 4.57955 39.0028 4.0625 39.5824 3.69886C40.1619 3.33523 40.8239 3.15341 41.5682 3.15341C42.3125 3.15341 42.9744 3.33523 43.554 3.69886C44.1335 4.0625 44.5895 4.57955 44.9219 5.25C45.2543 5.92045 45.4205 6.71591 45.4205 7.63636ZM44.3977 7.63636C44.3977 6.88068 44.2713 6.2429 44.0185 5.72301C43.7685 5.20312 43.429 4.80966 43 4.54261C42.5739 4.27557 42.0966 4.14205 41.5682 4.14205C41.0398 4.14205 40.5611 4.27557 40.1321 4.54261C39.706 4.80966 39.3665 5.20312 39.1136 5.72301C38.8636 6.2429 38.7386 6.88068 38.7386 7.63636C38.7386 8.39205 38.8636 9.02983 39.1136 9.54972C39.3665 10.0696 39.706 10.4631 40.1321 10.7301C40.5611 10.9972 41.0398 11.1307 41.5682 11.1307C42.0966 11.1307 42.5739 10.9972 43 10.7301C43.429 10.4631 43.7685 10.0696 44.0185 9.54972C44.2713 9.02983 44.3977 8.39205 44.3977 7.63636Z" fill="black"/>
<path d="M1.05682 12V3.27273H4.00568C4.69034 3.27273 5.25 3.39631 5.68466 3.64347C6.12216 3.88778 6.44602 4.21875 6.65625 4.63636C6.86648 5.05398 6.97159 5.51989 6.97159 6.03409C6.97159 6.5483 6.86648 7.01562 6.65625 7.43608C6.44886 7.85653 6.12784 8.19176 5.69318 8.44176C5.25852 8.68892 4.7017 8.8125 4.02273 8.8125H1.90909V7.875H3.98864C4.45739 7.875 4.83381 7.79403 5.1179 7.6321C5.40199 7.47017 5.60795 7.25142 5.7358 6.97585C5.86648 6.69744 5.93182 6.38352 5.93182 6.03409C5.93182 5.68466 5.86648 5.37216 5.7358 5.09659C5.60795 4.82102 5.40057 4.60511 5.11364 4.44886C4.8267 4.28977 4.44602 4.21023 3.97159 4.21023H2.11364V12H1.05682Z" fill="black"/>
</svg>
