<svg width="37" height="15" viewBox="0 0 37 15" fill="none" xmlns="http://www.w3.org/2000/svg">
<path d="M22.01 6H10V8H22.01V11L26 7L22.01 3V6Z" fill="black"/>
<path d="M32.2273 9.27273H33.3864L34.358 10.5511L34.6136 10.892L36.0625 12.8182H34.9034L33.9489 11.5398L33.7102 11.2159L32.2273 9.27273ZM36.4205 7.63636C36.4205 8.55682 36.2543 9.35227 35.9219 10.0227C35.5895 10.6932 35.1335 11.2102 34.554 11.5739C33.9744 11.9375 33.3125 12.1193 32.5682 12.1193C31.8239 12.1193 31.1619 11.9375 30.5824 11.5739C30.0028 11.2102 29.5469 10.6932 29.2145 10.0227C28.8821 9.35227 28.7159 8.55682 28.7159 7.63636C28.7159 6.71591 28.8821 5.92045 29.2145 5.25C29.5469 4.57955 30.0028 4.0625 30.5824 3.69886C31.1619 3.33523 31.8239 3.15341 32.5682 3.15341C33.3125 3.15341 33.9744 3.33523 34.554 3.69886C35.1335 4.0625 35.5895 4.57955 35.9219 5.25C36.2543 5.92045 36.4205 6.71591 36.4205 7.63636ZM35.3977 7.63636C35.3977 6.88068 35.2713 6.2429 35.0185 5.72301C34.7685 5.20312 34.429 4.80966 34 4.54261C33.5739 4.27557 33.0966 4.14205 32.5682 4.14205C32.0398 4.14205 31.5611 4.27557 31.1321 4.54261C30.706 4.80966 30.3665 5.20312 30.1136 5.72301C29.8636 6.2429 29.7386 6.88068 29.7386 7.63636C29.7386 8.39205 29.8636 9.02983 30.1136 9.54972C30.3665 10.0696 30.706 10.4631 31.1321 10.7301C31.5611 10.9972 32.0398 11.1307 32.5682 11.1307C33.0966 11.1307 33.5739 10.9972 34 10.7301C34.429 10.4631 34.7685 10.0696 35.0185 9.54972C35.2713 9.02983 35.3977 8.39205 35.3977 7.63636Z" fill="black"/>
<path d="M1.05682 12V3.27273H4.00568C4.69034 3.27273 5.25 3.39631 5.68466 3.64347C6.12216 3.88778 6.44602 4.21875 6.65625 4.63636C6.86648 5.05398 6.97159 5.51989 6.97159 6.03409C6.97159 6.5483 6.86648 7.01562 6.65625 7.43608C6.44886 7.85653 6.12784 8.19176 5.69318 8.44176C5.25852 8.68892 4.7017 8.8125 4.02273 8.8125H1.90909V7.875H3.98864C4.45739 7.875 4.83381 7.79403 5.1179 7.6321C5.40199 7.47017 5.60795 7.25142 5.7358 6.97585C5.86648 6.69744 5.93182 6.38352 5.93182 6.03409C5.93182 5.68466 5.86648 5.37216 5.7358 5.09659C5.60795 4.82102 5.40057 4.60511 5.11364 4.44886C4.8267 4.28977 4.44602 4.21023 3.97159 4.21023H2.11364V12H1.05682Z" fill="black"/>
</svg>
